# xmcd
#
# Track frame offsets:
#	150
#	21102
#	41051
#	52053
#	68838
#	85230
#	100352
#	117854
#	136748
#	157140
#
# Disc length: 2261 seconds
# Revision: 0
# Processed by: cddbd v1.5.2PL0 Copyright (c) Steve Scherf et al.
# Submitted via: dBpowerAMP V12.0
#
DISCID=8708d30a
DTITLE=The BarFlys - The BarFlys
DYEAR=1993
DGENRE=R&B
TTITLE0=Thunder Down Under
TTITLE1=Take it Easy
TTITLE2=Buzz Like a Blowie
TTITLE3=Money
TTITLE4=Mulloway
TTITLE5=Tits
TTITLE6=Roller-coaster
TTITLE7=God Damn Flys
TTITLE8=Boogie Woman
TTITLE9=The Barflys
EXTD=
EXTT0=
EXTT1=
EXTT2=
EXTT3=
EXTT4=
EXTT5=
EXTT6=
EXTT7=
EXTT8=
EXTT9=
PLAYORDER=
